# xmcd
#
# Track frame offsets: 
#        150
#        14857
#        33912
#        56350
#        68825
#        93395
#        108552
#        120755
#        136795
#        154210
#
# Disc length: 2387 seconds
#
# Revision: 2
# Processed by: cddbd v1.5.2PL0 Copyright (c) Steve Scherf et al.
# Submitted via: ExactAudioCopy v1.3
#
DISCID=7c09510a
DTITLE=Carol Joy Robins - Joy Sings The Blues
DYEAR=1988
DGENRE=Blues
TTITLE0=It's A Mean Old Man's World
TTITLE1=Blues Are Brewin'
TTITLE2=Million Dollar Secret
TTITLE3=He May Be Your Man
TTITLE4=Willow Weep For Me
TTITLE5=Love Me Like A Man
TTITLE6=Gee Baby, Ain't I Good To You?
TTITLE7=No Good Man
TTITLE8=Love's A One-Sided Game
TTITLE9=Stormy Monday Blues
EXTD=Optimism,1988 YEAR: 1988
EXTT0=
EXTT1=
EXTT2=
EXTT3=
EXTT4=
EXTT5=
EXTT6=
EXTT7=
EXTT8=
EXTT9=
PLAYORDER=
